<svg width="20" height="20" viewBox="0 0 20 20" fill="none" xmlns="http://www.w3.org/2000/svg">
<path d="M10 20C15.5228 20 20 15.5228 20 10C20 4.47715 15.5228 0 10 0C4.47715 0 0 4.47715 0 10C0 15.5228 4.47715 20 10 20Z" fill="#1A5ED4"/>
<path fill-rule="evenodd" clip-rule="evenodd" d="M13.442 6.25C13.7735 6.25 14.0915 6.1183 14.3259 5.88388C14.5603 5.64946 14.692 5.33152 14.692 5C14.692 4.66848 14.5603 4.35054 14.3259 4.11612C14.0915 3.8817 13.7735 3.75 13.442 3.75C13.1105 3.75 12.7925 3.8817 12.5581 4.11612C12.3237 4.35054 12.192 4.66848 12.192 5C12.192 5.33152 12.3237 5.64946 12.5581 5.88388C12.7925 6.1183 13.1105 6.25 13.442 6.25ZM5.625 7.5H3.75L6.875 15H8.755L11.88 7.5H10.005L7.815 12.756L5.625 7.5ZM14.38 15V7.5H12.505V15H14.38Z" fill="white"/>
</svg>
