<svg width="190" height="50" viewBox="0 0 190 50" fill="none" xmlns="http://www.w3.org/2000/svg">
<rect width="190" height="50" fill="white"/>
<mask id="mask0_8_19" style="mask-type:luminance" maskUnits="userSpaceOnUse" x="0" y="10" width="36" height="30">
<path d="M36 10H0V40H36V10Z" fill="white"/>
</mask>
<g mask="url(#mask0_8_19)">
<path d="M20.9943 23.2669H15.0057C12.3218 19.4752 9.19138 16.5119 5.00189 15.5557V23.2587H0V10C7.33269 10.2226 13.483 12.9386 18 18.6097C22.517 12.9386 28.6673 10.2226 36 10V23.2587H30.9981V15.5598C26.8129 16.516 23.6824 19.4793 20.9943 23.2711" fill="#1A5ED4"/>
<path d="M15.0059 26.7331H20.9945C23.6783 30.5207 26.8088 33.4881 30.9983 34.4443V26.7413H36.0002V40C26.8896 39.7239 19.5994 35.5983 15.0059 26.7331Z" fill="#1AA8D4"/>
<path d="M20.9943 26.7331H15.0057C12.3218 30.5207 9.19138 33.4881 5.00189 34.4443V26.7413H0V40C9.11057 39.7239 16.4008 35.5983 20.9943 26.7331Z" fill="#00299D"/>
</g>
<path d="M56.36 31.2C57.9 31.2 59.24 30.28 59.8 29.24V31H62.22V15.7H59.8V22.14C59.22 21.1 58.16 20.32 56.46 20.32C53.74 20.32 51.76 22.44 51.76 25.78V25.94C51.76 29.34 53.74 31.2 56.36 31.2ZM56.96 29.28C55.4 29.28 54.24 28.18 54.24 25.88V25.72C54.24 23.46 55.28 22.22 57.06 22.22C58.82 22.22 59.88 23.36 59.88 25.66V25.82C59.88 28.16 58.64 29.28 56.96 29.28ZM64.5562 31H66.9762V20.54H64.5562V31ZM65.7362 18.82C66.5362 18.82 67.1762 18.22 67.1762 17.44C67.1762 16.64 66.5362 16.04 65.7362 16.04C64.9362 16.04 64.2962 16.64 64.2962 17.44C64.2962 18.22 64.9362 18.82 65.7362 18.82ZM72.9059 31.2C75.5859 31.2 77.0859 29.98 77.0859 27.86C77.0859 25.64 75.6259 25.04 73.1659 24.66C71.5059 24.38 71.0059 24.08 71.0059 23.32C71.0059 22.58 71.6259 22.08 72.6659 22.08C73.7859 22.08 74.3259 22.52 74.5259 23.48H76.7659C76.5059 21.12 74.8059 20.32 72.6659 20.32C70.7059 20.32 68.7459 21.36 68.7459 23.46C68.7459 25.42 69.7659 26.2 72.5259 26.64C74.0659 26.9 74.7659 27.22 74.7659 28.08C74.7659 28.96 74.1859 29.42 72.8859 29.42C71.4659 29.42 70.9259 28.8 70.8059 27.74H68.5259C68.6259 29.96 70.2059 31.2 72.9059 31.2ZM83.1888 31.2C86.0288 31.2 87.8488 29.5 88.0288 27.1H85.8088C85.6688 28.58 84.5688 29.34 83.2888 29.34C81.5088 29.34 80.3888 28.14 80.3888 25.86V25.7C80.3888 23.54 81.5688 22.26 83.2288 22.26C84.5088 22.26 85.4288 22.84 85.6288 24.24H87.9688C87.6888 21.36 85.5088 20.32 83.1888 20.32C80.2688 20.32 77.9088 22.42 77.9088 25.74V25.9C77.9088 29.24 80.1888 31.2 83.1888 31.2ZM94.1927 29.32C92.3527 29.32 91.2927 27.98 91.2927 25.84V25.68C91.2927 23.52 92.3927 22.22 94.1927 22.22C95.9927 22.22 97.0727 23.54 97.0727 25.7V25.84C97.0727 27.98 95.9927 29.32 94.1927 29.32ZM94.1727 31.2C97.2527 31.2 99.5527 29.08 99.5527 25.82V25.66C99.5527 22.46 97.2527 20.32 94.1927 20.32C91.1127 20.32 88.8127 22.48 88.8127 25.72V25.88C88.8127 29.06 91.0927 31.2 94.1727 31.2ZM103.489 31H106.309L110.089 20.54H107.709L105.009 28.52L102.269 20.54H99.6686L103.489 31ZM115.491 31.2C118.171 31.2 119.951 30 120.291 27.8H117.951C117.771 28.82 117.011 29.4 115.551 29.4C113.751 29.4 112.751 28.28 112.671 26.3H120.331V25.6C120.331 21.86 117.991 20.32 115.391 20.32C112.411 20.32 110.191 22.48 110.191 25.72V25.88C110.191 29.18 112.411 31.2 115.491 31.2ZM112.711 24.68C112.951 23.06 113.931 22.08 115.391 22.08C116.891 22.08 117.811 22.88 117.931 24.68H112.711ZM121.892 31H124.312V25.56C124.312 23.34 125.592 22.66 127.712 22.64V20.38C125.952 20.4 124.972 21.18 124.312 22.5V20.54H121.892V31ZM129.482 31H131.142V24.6C131.142 22.72 132.542 21.8 133.902 21.8C135.342 21.8 136.122 22.56 136.122 24.4V31H137.782V24.6C137.782 22.72 139.182 21.8 140.542 21.8C141.982 21.8 142.762 22.56 142.762 24.4V31H144.422V24.52C144.422 21.48 142.782 20.36 140.902 20.36C139.602 20.36 138.042 20.96 137.322 22.32C136.782 20.92 135.602 20.36 134.262 20.36C132.762 20.36 131.622 21.16 131.142 22.14V20.54H129.482V31ZM149.705 31.18C151.245 31.18 152.185 30.66 152.965 29.68V31H154.625V24.1C154.625 21.18 152.805 20.36 150.805 20.36C148.785 20.36 146.885 21.24 146.665 23.62H148.325C148.485 22.34 149.285 21.74 150.725 21.74C152.325 21.74 152.965 22.44 152.965 24.1V24.86H151.465C148.785 24.86 146.225 25.68 146.225 28.1C146.225 30.24 147.765 31.18 149.705 31.18ZM149.865 29.86C148.405 29.86 147.885 29.18 147.885 28.1C147.885 26.56 149.425 26.04 151.525 26.04H152.965V27.34C152.965 28.96 151.625 29.86 149.865 29.86ZM157.285 31H158.945V25.26C158.945 22.68 160.285 22.02 162.385 21.92V20.36C160.505 20.42 159.605 21.24 158.945 22.42V20.54H157.285V31ZM164.205 31H165.865V25.58L170.505 31H172.525L167.665 25.4L172.145 20.54H170.205L165.865 25.36V15.54H164.205V31ZM177.807 31.18C180.167 31.18 181.907 30.08 182.267 27.98H180.607C180.387 29.2 179.447 29.8 177.827 29.8C175.687 29.8 174.547 28.48 174.467 26.1H182.347V25.56C182.347 21.82 180.067 20.36 177.647 20.36C174.767 20.36 172.747 22.56 172.747 25.72V25.88C172.747 29.1 174.847 31.18 177.807 31.18ZM174.527 24.76C174.807 22.9 175.947 21.74 177.647 21.74C179.367 21.74 180.487 22.6 180.647 24.76H174.527ZM187.474 31.14C188.154 31.14 188.554 31.04 188.894 30.92V29.52C188.534 29.66 188.134 29.74 187.614 29.74C186.774 29.74 186.314 29.24 186.314 28.22V21.94H188.754V20.54H186.314V18.16H184.654V20.54H183.154V21.94H184.654V28.38C184.654 30.02 185.574 31.14 187.474 31.14Z" fill="#041D2C"/>
</svg>
